<svg width="67" height="64" viewBox="0 0 67 64" fill="none" xmlns="http://www.w3.org/2000/svg">
<rect x="1.5" y="1.5" width="64" height="61" rx="8.5" stroke="#FF0000" stroke-width="3"/>
<g clip-path="url(#clip0)">
<path d="M12.2764 48.752L16.9487 53.4912C18.6686 55.236 21.4768 55.2555 23.2211 53.5366L33.4221 43.4795L43.4753 53.6786C45.1963 55.4234 48.0045 55.4429 49.7483 53.7229L54.4855 49.0539C56.2303 47.334 56.2509 44.5258 54.5298 42.7799L44.4761 32.581L54.6783 22.5251C56.4218 20.8052 56.4435 17.9969 54.7214 16.251L50.0515 11.5117C48.3306 9.76813 45.5224 9.74739 43.7787 11.4662L33.576 21.5234L23.5226 11.3234C21.8016 9.57965 18.9932 9.55909 17.2491 11.2779L12.5125 15.9479C10.7677 17.6689 10.7466 20.476 12.467 22.2219L22.5213 32.4219L12.3218 42.4801C10.577 44.1989 10.5559 47.0083 12.2764 48.752Z" fill="#FF0000"/>
</g>
<defs>
<clipPath id="clip0">
<rect width="45" height="45" fill="white" transform="translate(11 10)"/>
</clipPath>
</defs>
</svg>
