<svg width="27" height="27" viewBox="0 0 27 27" fill="none" xmlns="http://www.w3.org/2000/svg">
<path d="M24.4699 12.2344H24.4688C24.3026 12.2345 24.138 12.2674 23.9845 12.3311C23.831 12.3949 23.6915 12.4882 23.5741 12.6058C23.4567 12.7235 23.3636 12.8631 23.3001 13.0167C23.2366 13.1703 23.204 13.3349 23.2042 13.5011C23.2026 15.2755 22.7147 17.0154 21.7934 18.5319C20.8722 20.0484 19.5529 21.2833 17.979 22.1025C16.405 22.9217 14.6367 23.2938 12.8661 23.1783C11.0955 23.0628 9.39038 22.4642 7.93616 21.4475C3.55394 18.379 2.48506 12.3173 5.55357 7.93505C8.62208 3.55277 14.6838 2.48379 19.0661 5.5524C19.7291 6.01541 20.3316 6.55945 20.8597 7.17188H17.298C16.9623 7.17188 16.6404 7.30522 16.4031 7.54257C16.1657 7.77992 16.0324 8.10184 16.0324 8.4375C16.0324 8.77316 16.1657 9.09508 16.4031 9.33243C16.6404 9.56978 16.9623 9.70312 17.298 9.70312H23.2042C23.5399 9.70312 23.8618 9.56978 24.0992 9.33243C24.3365 9.09508 24.4699 8.77316 24.4699 8.4375V2.53125C24.4699 2.19559 24.3365 1.87367 24.0992 1.63632C23.8618 1.39897 23.5399 1.26563 23.2042 1.26562C22.8686 1.26563 22.5467 1.39897 22.3093 1.63632C22.072 1.87367 21.9386 2.19559 21.9386 2.53125V4.63889C21.4945 4.21748 21.0196 3.8297 20.518 3.47873C19.202 2.55727 17.7174 1.90403 16.1489 1.55633C14.5805 1.20862 12.9589 1.17324 11.3768 1.45222C9.79464 1.7312 8.28296 2.31906 6.92803 3.18226C5.57311 4.04545 4.40146 5.16706 3.48 6.48306C1.61903 9.14083 0.890073 12.429 1.45349 15.6243C2.01692 18.8195 3.82656 21.66 6.48433 23.521C8.53061 24.9623 10.9722 25.7362 13.4752 25.7366C14.1961 25.7363 14.9156 25.673 15.6255 25.5476C18.458 25.0479 21.024 23.5663 22.8729 21.3629C24.7218 19.1595 25.7353 16.3752 25.7355 13.4989C25.7352 13.1634 25.6017 12.8418 25.3644 12.6047C25.1271 12.3676 24.8054 12.2344 24.4699 12.2344Z" fill="black"/>
</svg>
