<svg width="33" height="33" viewBox="0 0 33 33" fill="none" xmlns="http://www.w3.org/2000/svg">
<rect x="0.5" y="0.5" width="32" height="32" rx="9.5" stroke="white"/>
<path d="M27.6281 13.7854L25.6698 13.5365C25.5083 13.0396 25.3094 12.5604 25.0771 12.1052L26.2865 10.5479C26.776 9.91771 26.7187 9.02812 26.1594 8.48646L24.5187 6.84583C23.9719 6.28125 23.0823 6.225 22.451 6.71354L20.8958 7.92292C20.4406 7.69062 19.9615 7.49167 19.4635 7.33021L19.2146 5.375C19.1208 4.59063 18.4552 4 17.6667 4H15.3333C14.5448 4 13.8792 4.59063 13.7854 5.37187L13.5365 7.33021C13.0385 7.49167 12.5594 7.68958 12.1042 7.92292L10.5479 6.71354C9.91875 6.225 9.02917 6.28125 8.48646 6.84062L6.84583 8.48021C6.28125 9.02812 6.22396 9.91771 6.71354 10.549L7.92292 12.1052C7.68958 12.5604 7.49167 13.0396 7.33021 13.5365L5.375 13.7854C4.59063 13.8792 4 14.5448 4 15.3333V17.6667C4 18.4552 4.59063 19.1208 5.37187 19.2146L7.33021 19.4635C7.49167 19.9604 7.69062 20.4396 7.92292 20.8948L6.71354 22.4521C6.22396 23.0823 6.28125 23.9719 6.84062 24.5135L8.48125 26.1542C9.02917 26.7177 9.91771 26.774 10.549 26.2854L12.1052 25.076C12.5604 25.3094 13.0396 25.5083 13.5365 25.6687L13.7854 27.6229C13.8792 28.4094 14.5448 29 15.3333 29H17.6667C18.4552 29 19.1208 28.4094 19.2146 27.6281L19.4635 25.6698C19.9604 25.5083 20.4396 25.3094 20.8948 25.0771L22.4521 26.2865C23.0823 26.776 23.9719 26.7187 24.5135 26.1594L26.1542 24.5187C26.7187 23.9708 26.776 23.0823 26.2865 22.451L25.0771 20.8948C25.3104 20.4396 25.5094 19.9604 25.6698 19.4635L27.624 19.2146C28.4083 19.1208 28.999 18.4552 28.999 17.6667V15.3333C29 14.5448 28.4094 13.8792 27.6281 13.7854V13.7854ZM16.5 21.7083C13.6281 21.7083 11.2917 19.3719 11.2917 16.5C11.2917 13.6281 13.6281 11.2917 16.5 11.2917C19.3719 11.2917 21.7083 13.6281 21.7083 16.5C21.7083 19.3719 19.3719 21.7083 16.5 21.7083Z" fill="white"/>
</svg>
